<?xml version="1.0" encoding="UTF-8"?>
<!-- Generator: visioncortex VTracer 0.6.12 -->
<svg version="1.1" xmlns="http://www.w3.org/2000/svg" width="1266" height="1266">
<path d="M0 0 C1.45 -0 2.91 -0.01 4.36 -0.01 C8.33 -0.02 12.3 -0.02 16.27 -0.02 C20.56 -0.01 24.85 -0.02 29.14 -0.03 C37.53 -0.04 45.93 -0.04 54.32 -0.04 C61.15 -0.04 67.97 -0.04 74.8 -0.05 C75.28 -0.05 75.28 -0.05 77.74 -0.05 C79.72 -0.05 81.69 -0.05 83.67 -0.05 C102.18 -0.06 120.7 -0.06 139.21 -0.05 C156.14 -0.05 173.07 -0.06 190 -0.08 C207.39 -0.1 224.79 -0.11 242.18 -0.1 C251.94 -0.1 261.7 -0.1 271.46 -0.12 C279.77 -0.13 288.08 -0.13 296.39 -0.12 C300.62 -0.11 304.86 -0.11 309.1 -0.12 C312.98 -0.13 316.86 -0.13 320.74 -0.12 C322.14 -0.11 323.54 -0.12 324.94 -0.13 C339.28 -0.2 348.81 2.01 359.26 11.92 C367.42 20.56 368.66 31.53 368.64 42.92 C368.64 43.77 368.65 44.62 368.65 45.49 C368.66 48.32 368.65 51.15 368.65 53.97 C368.66 56.01 368.66 58.04 368.66 60.07 C368.67 65.58 368.67 71.1 368.68 76.61 C368.68 80.06 368.68 83.5 368.68 86.95 C368.69 98.98 368.69 111.02 368.69 123.05 C368.69 134.26 368.7 145.46 368.72 156.66 C368.73 166.29 368.74 175.92 368.74 185.55 C368.74 191.3 368.74 197.04 368.75 202.79 C368.76 208.2 368.76 213.61 368.75 219.01 C368.75 220.99 368.75 222.97 368.76 224.95 C368.84 254.6 368.84 254.6 357.82 266.51 C351.34 272.68 343.47 276.38 334.53 276.39 C333.27 276.4 332.01 276.4 330.72 276.41 C329.32 276.41 327.91 276.41 326.51 276.41 C325.03 276.41 323.54 276.41 322.06 276.42 C317.97 276.43 313.88 276.43 309.79 276.44 C305.38 276.44 300.97 276.45 296.57 276.46 C285.92 276.48 275.27 276.49 264.62 276.5 C259.6 276.5 254.59 276.51 249.58 276.51 C232.91 276.53 216.24 276.54 199.57 276.55 C195.25 276.55 190.92 276.55 186.6 276.56 C185.52 276.56 184.44 276.56 183.34 276.56 C165.92 276.57 148.5 276.59 131.09 276.62 C113.21 276.66 95.33 276.67 77.45 276.68 C67.41 276.68 57.37 276.69 47.33 276.71 C38.78 276.74 30.23 276.74 21.68 276.73 C17.32 276.73 12.95 276.73 8.59 276.75 C4.6 276.77 0.6 276.77 -3.4 276.75 C-4.84 276.75 -6.28 276.75 -7.72 276.77 C-19.45 276.86 -28.3 274.85 -37.45 267.32 C-51.43 253.23 -48.64 231.62 -48.64 213.35 C-48.64 211.41 -48.64 209.46 -48.65 207.52 C-48.66 202.28 -48.66 197.05 -48.66 191.82 C-48.66 188.54 -48.66 185.26 -48.66 181.99 C-48.67 170.54 -48.68 159.09 -48.68 147.64 C-48.68 136.99 -48.69 126.34 -48.7 115.7 C-48.72 106.53 -48.72 97.35 -48.72 88.18 C-48.72 82.72 -48.72 77.25 -48.73 71.79 C-48.74 66.65 -48.74 61.52 -48.74 56.39 C-48.74 54.51 -48.74 52.63 -48.74 50.75 C-48.83 22.25 -48.83 22.25 -38.6 11.22 C-27.3 0.76 -14.85 -0.04 0 0 Z M-23.87 27.76 C-26.81 32.28 -26.64 36.38 -26.63 41.59 C-26.64 42.45 -26.64 43.31 -26.64 44.2 C-26.65 47.09 -26.65 49.98 -26.65 52.88 C-26.66 54.94 -26.66 57.01 -26.67 59.08 C-26.68 64.71 -26.69 70.34 -26.69 75.97 C-26.69 79.49 -26.7 83.01 -26.7 86.52 C-26.72 97.52 -26.73 108.51 -26.73 119.51 C-26.74 132.21 -26.75 144.91 -26.78 157.62 C-26.8 167.43 -26.81 177.24 -26.81 187.05 C-26.82 192.92 -26.82 198.78 -26.84 204.64 C-26.86 210.16 -26.86 215.67 -26.85 221.19 C-26.85 223.21 -26.85 225.24 -26.86 227.26 C-26.88 230.02 -26.87 232.79 -26.86 235.55 C-26.87 236.35 -26.88 237.15 -26.88 237.98 C-26.84 242.77 -26.35 246.23 -23.49 250.26 C-17.18 255.54 -10.14 254.83 -2.26 254.78 C-0.8 254.79 0.66 254.8 2.13 254.81 C6.13 254.83 10.14 254.82 14.15 254.81 C18.47 254.81 22.8 254.83 27.12 254.84 C35.59 254.87 44.06 254.87 52.52 254.87 C59.41 254.86 66.29 254.87 73.17 254.87 C74.15 254.88 75.13 254.88 76.14 254.88 C78.13 254.88 80.12 254.88 82.11 254.88 C100.77 254.91 119.43 254.9 138.09 254.89 C155.16 254.88 172.23 254.9 189.31 254.94 C206.84 254.98 224.37 255 241.9 254.99 C251.74 254.98 261.58 254.99 271.42 255.02 C279.8 255.04 288.18 255.04 296.55 255.02 C300.83 255.01 305.1 255.01 309.38 255.03 C313.29 255.05 317.2 255.05 321.12 255.02 C322.53 255.01 323.95 255.02 325.36 255.03 C337.23 255.16 337.23 255.16 341.77 251.53 C346.56 246.39 346.8 241.54 346.77 234.73 C346.77 233.87 346.78 233.01 346.78 232.13 C346.79 229.26 346.79 226.38 346.78 223.51 C346.79 221.45 346.79 219.39 346.8 217.33 C346.81 211.74 346.81 206.14 346.81 200.55 C346.81 195.88 346.81 191.21 346.82 186.54 C346.83 175.52 346.83 164.51 346.82 153.49 C346.82 142.12 346.83 130.76 346.85 119.39 C346.87 109.63 346.88 99.88 346.87 90.12 C346.87 84.29 346.87 78.46 346.89 72.63 C346.9 67.15 346.9 61.67 346.88 56.19 C346.88 54.18 346.88 52.17 346.89 50.16 C346.9 47.41 346.9 44.67 346.88 41.92 C346.89 41.12 346.9 40.33 346.9 39.51 C346.85 33.59 345.46 29.52 341.51 24.95 C338.06 22.04 335.01 22.13 330.68 22.13 C330.06 22.13 330.06 22.13 326.97 22.12 C325.6 22.12 324.24 22.12 322.87 22.12 C321.42 22.12 319.98 22.11 318.53 22.11 C314.55 22.1 310.57 22.1 306.59 22.1 C302.3 22.1 298.01 22.09 293.72 22.08 C284.33 22.07 274.94 22.06 265.56 22.06 C259.7 22.06 253.84 22.05 247.98 22.05 C231.76 22.04 215.55 22.03 199.33 22.02 C198.81 22.02 198.81 22.02 196.18 22.02 C195.66 22.02 195.66 22.02 193.03 22.02 C190.92 22.02 188.81 22.02 186.7 22.02 C186.18 22.02 186.18 22.02 183.53 22.02 C166.58 22.02 149.63 22 132.67 21.98 C115.27 21.95 97.87 21.94 80.48 21.94 C70.7 21.94 60.93 21.93 51.16 21.91 C42.84 21.9 34.52 21.89 26.2 21.9 C21.95 21.9 17.71 21.9 13.46 21.89 C9.57 21.88 5.69 21.88 1.8 21.89 C0.39 21.89 -1.01 21.89 -2.42 21.88 C-18.19 21.79 -18.19 21.79 -23.87 27.76 Z " fill="#000000" transform="translate(486.49180603027344,228.7393035888672)"/>
<path d="M0 0 C5.5 3.9 10.08 9.05 14.8 13.83 C16.72 15.73 18.69 17.5 20.75 19.25 C24.53 22.48 28.01 25.97 31.5 29.5 C34.93 32.97 38.34 36.4 42.06 39.56 C45.63 42.6 48.98 45.83 52.31 49.12 C52.83 49.63 53.35 50.13 53.88 50.65 C57.84 54.6 60.72 57.81 61.44 63.44 C60.91 67.76 59.69 69.6 57 73 C56.55 73.57 56.11 74.13 55.64 74.72 C52.66 78.37 49.47 81.48 45.81 84.45 C43.41 86.51 41.23 88.75 39 91 C37.83 92.16 36.65 93.33 35.48 94.49 C23.04 106.82 23.04 106.82 18.3 112.48 C16.93 114.09 15.57 115.6 14 117 C13.34 117 12.68 117 12 117 C11.75 117.57 11.5 118.15 11.25 118.74 C9.82 121.33 8.17 123.06 6.06 125.12 C5.37 125.81 4.68 126.49 3.97 127.2 C0.35 130.51 -2.06 131.45 -7 131.32 C-10.94 130.69 -13.06 128.24 -15.38 125.19 C-16.35 121.76 -16.37 119.25 -15 116 C-12.28 112.39 -9.18 109.21 -6 106 C-5.38 105.36 -4.77 104.71 -4.13 104.05 C-1.29 101.14 1.64 98.43 4.75 95.81 C8.62 92.47 12 88.79 15.42 84.99 C21.68 78.07 28.36 71.55 35 65 C33.6 60.3 30.92 57.74 27.31 54.62 C26.22 53.65 25.13 52.68 24.04 51.71 C23.51 51.25 22.98 50.78 22.44 50.3 C20.64 48.68 18.94 46.98 17.25 45.25 C15.07 43.02 12.82 40.96 10.45 38.94 C5.26 34.42 0.42 29.56 -4.44 24.69 C-5.35 23.78 -6.26 22.88 -7.19 21.94 C-8.06 21.08 -8.92 20.21 -9.81 19.32 C-10.59 18.54 -11.37 17.76 -12.18 16.95 C-14.36 14.62 -14.92 13.47 -15.44 10.31 C-14.83 5.69 -12.45 3.04 -9 0 C-5.26 -1.25 -3.79 -1.14 0 0 Z " fill="#000000" transform="translate(539,301)"/>
<path d="M0 0 C1.21 -0.01 2.42 -0.01 3.67 -0.02 C5 -0.02 6.34 -0.02 7.68 -0.01 C9.09 -0.02 10.5 -0.02 11.91 -0.03 C15.74 -0.04 19.57 -0.04 23.4 -0.04 C26.6 -0.04 29.8 -0.04 33 -0.05 C40.55 -0.06 48.09 -0.06 55.64 -0.05 C63.42 -0.05 71.2 -0.06 78.99 -0.08 C85.67 -0.1 92.35 -0.11 99.04 -0.1 C103.03 -0.1 107.02 -0.1 111.01 -0.12 C114.76 -0.13 118.52 -0.13 122.27 -0.12 C123.65 -0.11 125.02 -0.12 126.4 -0.12 C128.28 -0.13 130.16 -0.12 132.04 -0.11 C132.57 -0.11 132.57 -0.11 135.23 -0.11 C139.23 0.41 141.76 2.21 144.87 4.67 C146.9 7.32 146.55 9.81 146.45 13.03 C145.92 16.3 144.46 18.03 142.09 20.26 C139.49 21.56 137.58 21.4 134.67 21.43 C134.1 21.43 134.1 21.43 131.19 21.46 C129.92 21.47 128.66 21.47 127.35 21.48 C126.01 21.49 124.66 21.5 123.32 21.52 C119.66 21.55 116 21.57 112.35 21.6 C109.29 21.62 106.23 21.64 103.18 21.66 C95.96 21.72 88.74 21.77 81.52 21.82 C74.09 21.87 66.66 21.92 59.23 21.98 C52.85 22.04 46.46 22.08 40.07 22.13 C36.26 22.15 32.45 22.18 28.64 22.21 C25.05 22.24 21.46 22.27 17.86 22.29 C15.93 22.3 14 22.32 12.07 22.33 C-6.24 22.42 -6.24 22.42 -10.98 19.14 C-13.37 15.59 -13.99 13.54 -13.91 9.26 C-12.71 5.94 -11.15 3.09 -8.14 1.08 C-5.32 0.04 -3 0.01 0 0 Z " fill="#000000" transform="translate(641.9141693115234,303.7393035888672)"/>
<path d="M0 0 C7.85 5.05 12.41 12.64 14.66 21.64 C15.9 30.72 13.73 39.23 9 47 C8.4 47.74 7.8 48.49 7.19 49.25 C6 51 6 51 6.22 52.71 C7.27 55.8 8.74 58.54 10.27 61.42 C10.94 62.69 11.61 63.95 12.27 65.22 C13.32 67.2 14.37 69.18 15.42 71.15 C19.21 78.28 22.77 85.2 25 93 C27.14 90.96 28.85 88.9 30.5 86.45 C50.99 56.3 79.14 35.15 115 27 C115.78 26.82 116.55 26.63 117.35 26.44 C126.23 24.57 135.16 24.54 144.19 24.38 C145.89 24.34 147.59 24.3 149.3 24.26 C153.45 24.18 157.61 24.1 161.77 24.04 C163.78 24 165.8 23.97 167.82 23.93 C200.35 23.37 228.32 28.34 255 48 C255.92 48.68 256.85 49.36 257.8 50.06 C285.44 71.38 302.81 104.36 307.73 138.73 C309.17 150.95 309.16 163.16 309.12 175.44 C309.12 176.37 309.12 177.3 309.12 178.25 C308.93 259.27 308.93 259.27 283.59 284.52 C282.73 285.34 281.88 286.16 281 287 C280.39 287.6 279.79 288.2 279.16 288.82 C266.49 300.6 250.76 304.63 233.88 304.52 C232.53 304.52 231.18 304.53 229.83 304.54 C226.21 304.56 222.59 304.55 218.97 304.54 C215.15 304.53 211.32 304.54 207.5 304.54 C201.07 304.55 194.65 304.54 188.23 304.52 C180.86 304.5 173.48 304.51 166.11 304.53 C159.73 304.55 153.36 304.55 146.98 304.54 C143.19 304.53 139.4 304.53 135.61 304.55 C100.71 304.65 68.8 298.82 43 273.19 C42 272.13 41 271.07 40 270 C39.2 269.24 38.39 268.47 37.56 267.69 C26.3 255.87 14.15 239.56 12 223 C11.2 222.81 10.39 222.63 9.56 222.44 C4.64 220.45 1.02 217.43 -3 214 C-3.61 213.5 -4.22 212.99 -4.85 212.48 C-14.87 203.46 -21.32 188.88 -22.24 175.54 C-22.56 158.64 -18.58 143.77 -6.68 131.2 C-1.68 126.13 3.61 121.27 10 118 C10.66 118 11.32 118 12 118 C8.85 109.61 5.07 101.53 1.25 93.43 C0.2 91.2 -0.85 88.97 -1.89 86.74 C-6 78 -10.31 69.44 -15 61 C-16.09 61.08 -17.19 61.17 -18.31 61.25 C-27.15 61.19 -34.68 57.46 -40.99 51.42 C-47.35 43.77 -50.65 34.91 -50 25 C-48.15 15.54 -43.62 7.28 -35.96 1.29 C-25.08 -5.86 -11.35 -6.63 0 0 Z M-26 21 C-28.27 23.78 -28.93 25.44 -29.38 29 C-28.94 32.52 -28.23 34.25 -26 37 C-22.65 39.29 -20.56 39.98 -16.5 40.12 C-11.78 38.61 -9.36 36.34 -7 32 C-5.99 27.94 -6.55 24.86 -8.5 21.12 C-14.42 16.09 -20.09 15.92 -26 21 Z M63 80 C62.3 80.65 61.6 81.29 60.88 81.96 C51.59 90.83 45.1 101.28 40 113 C40 113.66 40 114.32 40 115 C40.68 115.1 41.36 115.2 42.05 115.3 C56.18 117.57 68.23 123.46 77.44 134.75 C86.85 148.35 89.52 162.78 88 179 C85.34 193.36 77.7 206.47 65.99 215.26 C56.8 221.26 46.95 224.98 36 226 C36.56 230.48 38.39 233.78 40.81 237.5 C41.21 238.11 41.6 238.71 42 239.34 C46.61 246.22 52.14 252.17 58 258 C58.34 258.34 58.34 258.34 60.09 260.09 C78.74 277.48 103.47 283.16 128.22 283.15 C129.4 283.15 130.58 283.15 131.8 283.16 C135.67 283.16 139.55 283.17 143.43 283.17 C144.77 283.17 146.12 283.17 147.46 283.17 C154.5 283.18 161.55 283.19 168.59 283.19 C175.12 283.18 181.65 283.2 188.18 283.21 C193.82 283.22 199.46 283.23 205.09 283.23 C208.45 283.23 211.8 283.23 215.15 283.24 C218.9 283.25 222.65 283.25 226.39 283.24 C227.48 283.25 228.57 283.25 229.69 283.26 C244.52 283.2 256.67 281.19 267.81 270.81 C276.93 261.09 284 245.49 284 232 C283.39 232 282.77 232 282.14 232 C267.19 231.96 252.24 231.9 237.29 231.82 C230.06 231.78 222.83 231.74 215.6 231.73 C209.3 231.72 202.99 231.69 196.68 231.65 C193.35 231.62 190.01 231.61 186.68 231.61 C182.94 231.61 179.21 231.58 175.47 231.55 C174.93 231.55 174.93 231.55 172.17 231.56 C160.5 231.4 150.45 228.24 142 220 C132.26 209.44 130.87 199.13 130.76 185.24 C130.75 184.21 130.75 183.18 130.74 182.13 C130.72 179.96 130.71 177.79 130.7 175.62 C130.69 173.42 130.67 171.23 130.64 169.03 C130.42 152.06 130.67 139.08 142.74 126.13 C149.43 119.67 159.34 114.87 168.73 114.88 C169.7 114.88 170.67 114.88 171.67 114.88 C172.74 114.88 173.8 114.88 174.9 114.89 C176.02 114.89 177.14 114.89 178.3 114.89 C182.01 114.89 185.73 114.89 189.45 114.9 C192.02 114.9 194.6 114.91 197.17 114.91 C203.26 114.91 209.35 114.92 215.44 114.93 C222.37 114.94 229.3 114.94 236.23 114.95 C250.49 114.96 264.74 114.98 279 115 C275.25 103.36 269.08 93.14 261 84 C260.28 83.16 259.56 82.32 258.81 81.45 C241.96 62.17 220.48 49.7 195 46 C192.9 45.9 190.79 45.85 188.68 45.84 C187.45 45.83 186.22 45.82 184.95 45.81 C183.61 45.8 182.28 45.8 180.94 45.8 C180.6 45.8 180.6 45.8 178.88 45.79 C175.26 45.77 171.64 45.76 168.03 45.76 C164.34 45.75 160.65 45.73 156.95 45.7 C154.08 45.68 151.2 45.68 148.33 45.68 C146.32 45.67 144.31 45.65 142.3 45.63 C111.38 45.71 85.11 59.12 63 80 Z M7.69 147.31 C0.38 156.45 -0.86 166.63 0 178 C2.05 187.25 6.54 194.76 14.25 200.31 C23.19 205.77 31.7 207.15 42 205 C52.84 201.3 59.72 194.76 64.94 184.69 C68.46 177.27 69.36 169.36 67.32 161.31 C63.23 150.46 57.02 142.05 46.31 137.19 C32.04 132.07 17.93 136.25 7.69 147.31 Z M178.62 161.5 C174.63 167.65 174.21 172.69 175 180 C177.74 185.68 181.57 188.94 187.31 191.44 C192.04 192.16 194.94 191.49 199 189 C204.29 184.35 206.68 179.54 207.31 172.5 C206.79 166.61 204.02 162.25 200 158 C191.97 153.05 185 154.79 178.62 161.5 Z M253.41 160.5 C248.85 165.81 248.65 170.31 248.72 177.05 C249.24 182.53 252.07 185.07 255.81 188.81 C259.49 191.34 261.55 192 266 192 C271.86 190.18 276.08 187.57 279.04 182.06 C281.61 175.79 281.04 170.37 279 164 C276.34 159.19 272.1 156.78 267 155 C261.59 155 257.39 156.76 253.41 160.5 Z " fill="#000000" transform="translate(50,317)"/>
<path d="M0 0 C6.62 5.35 11.24 11.86 12.81 20.31 C13.91 31.14 11.94 39.2 5.69 48.06 C1.12 53.62 -5.06 57.89 -12.19 59.31 C-13.94 59.38 -15.69 59.4 -17.44 59.38 C-17.88 59.37 -17.88 59.37 -20.14 59.35 C-20.82 59.34 -21.49 59.32 -22.19 59.31 C-29.35 77.92 -36.48 96.54 -43.19 115.31 C-42.6 115.49 -42.02 115.67 -41.41 115.85 C-27.1 120.35 -18.28 130.33 -11.31 143.38 C-4.77 157.7 -3.97 173.15 -8.93 188.14 C-14.22 201.54 -23.98 214.71 -37.19 221.31 C-38.11 223.66 -38.94 225.99 -39.75 228.38 C-44.64 241.99 -51.67 253.45 -61.19 264.31 C-61.86 265.17 -62.53 266.02 -63.22 266.91 C-66.17 270.51 -69.63 273.33 -73.19 276.31 C-73.91 276.94 -74.63 277.57 -75.37 278.22 C-99.35 298.53 -126.36 302.96 -156.81 302.88 C-159.77 302.88 -162.73 302.88 -165.68 302.89 C-172.67 302.91 -179.66 302.91 -186.64 302.89 C-193.8 302.87 -200.95 302.89 -208.11 302.92 C-214.3 302.95 -220.5 302.95 -226.69 302.95 C-230.37 302.94 -234.05 302.94 -237.72 302.96 C-262.16 303.09 -281.22 301.25 -299.78 283.81 C-322.22 260.56 -325.29 229.06 -325.43 198.18 C-325.43 197.38 -325.43 196.58 -325.44 195.75 C-325.46 191.49 -325.47 187.24 -325.48 182.98 C-325.49 179.51 -325.51 176.03 -325.54 172.56 C-325.88 135.41 -325.88 135.41 -321.19 120.31 C-321.07 119.94 -321.07 119.94 -320.48 118.03 C-309.45 82.89 -286.02 53.71 -253.61 36.05 C-242.37 30.33 -231.47 26.83 -219.19 24.31 C-218.39 24.14 -217.6 23.96 -216.78 23.78 C-214.14 23.3 -211.65 23.14 -208.96 23.08 C-207.94 23.05 -206.93 23.02 -205.88 23 C-204.78 22.97 -203.68 22.95 -202.55 22.93 C-201.41 22.9 -200.26 22.87 -199.08 22.85 C-196.65 22.8 -194.22 22.75 -191.78 22.7 C-188.12 22.63 -184.47 22.54 -180.81 22.44 C-164.28 22.08 -147.55 21.93 -131.5 26.5 C-130.72 26.71 -129.95 26.93 -129.15 27.15 C-110.84 32.43 -94.47 41.76 -80.19 54.31 C-79.34 55.03 -78.48 55.75 -77.61 56.49 C-69.21 63.74 -62.47 72.2 -56.19 81.31 C-52.41 76.64 -50.11 71.29 -47.61 65.86 C-47.04 64.62 -46.45 63.38 -45.85 62.16 C-40.85 51.94 -40.85 51.94 -41.66 48.04 C-42.7 46.22 -42.7 46.22 -45.19 43.31 C-45.93 41.92 -46.66 40.53 -47.38 39.12 C-47.54 38.81 -47.54 38.81 -48.36 37.21 C-51.41 30.24 -50.94 22.78 -48.56 15.69 C-44.91 6.68 -39.77 0.92 -31.19 -3.69 C-20.7 -7.96 -9.19 -6.39 0 0 Z M-26.19 18.31 C-28.86 22.32 -29.19 24.48 -29.19 29.31 C-27.51 33.5 -25.31 35.53 -21.19 37.31 C-16.92 37.85 -14.95 37.81 -11.31 35.44 C-8.45 32.57 -8 30.95 -7.88 27 C-7.9 23.48 -8.12 22.42 -10.06 19.31 C-13.57 16.01 -16.25 15.9 -20.93 15.98 C-23.19 16.31 -23.19 16.31 -26.19 18.31 Z M-276.19 81.31 C-294.19 102.33 -294.19 102.33 -294.19 112.31 C-293.62 112.31 -293.04 112.32 -292.45 112.32 C-278.49 112.35 -264.52 112.41 -250.56 112.5 C-243.8 112.54 -237.05 112.57 -230.3 112.58 C-223.77 112.6 -217.25 112.63 -210.73 112.68 C-208.24 112.7 -205.76 112.7 -203.28 112.7 C-199.79 112.71 -196.3 112.73 -192.81 112.77 C-191.79 112.76 -190.78 112.76 -189.73 112.75 C-179.27 112.9 -169.85 116.03 -162.19 123.31 C-152.39 133.78 -150.05 144.82 -149.98 158.76 C-149.98 159.76 -149.97 160.77 -149.97 161.81 C-149.96 163.93 -149.95 166.06 -149.95 168.19 C-149.94 171.41 -149.91 174.62 -149.88 177.84 C-149.79 194.62 -150.69 207.18 -162.44 220.06 C-168.69 226.05 -176.61 229.41 -185.22 229.47 C-185.73 229.48 -185.73 229.48 -188.3 229.5 C-189.41 229.51 -190.52 229.51 -191.66 229.52 C-192.83 229.53 -194 229.54 -195.21 229.55 C-199.08 229.58 -202.95 229.6 -206.83 229.63 C-209.51 229.65 -212.2 229.67 -214.88 229.69 C-221.23 229.74 -227.58 229.79 -233.92 229.83 C-241.15 229.88 -248.37 229.93 -255.6 229.99 C-270.46 230.1 -285.32 230.21 -300.19 230.31 C-300.05 231.73 -299.9 233.15 -299.75 234.57 C-299.67 235.36 -299.59 236.15 -299.51 236.97 C-297.84 249.28 -291.75 263.15 -282 271.09 C-270.72 279.41 -260.48 281.46 -246.71 281.46 C-246.14 281.46 -246.14 281.46 -243.23 281.47 C-239.44 281.48 -235.64 281.48 -231.84 281.48 C-229.87 281.48 -227.89 281.49 -225.91 281.49 C-219.68 281.5 -213.46 281.5 -207.23 281.5 C-200.85 281.5 -194.46 281.51 -188.07 281.52 C-182.56 281.54 -177.05 281.54 -171.54 281.54 C-168.27 281.54 -164.99 281.54 -161.71 281.55 C-131.54 281.64 -107.28 278.12 -84.19 257.31 C-83.8 256.96 -83.8 256.96 -81.82 255.2 C-73.4 247.24 -66.01 236.89 -61.19 226.31 C-61.19 225.65 -61.19 224.99 -61.19 224.31 C-62.24 224.14 -63.29 223.97 -64.37 223.8 C-78.94 221.33 -92.67 216.35 -102.47 204.57 C-109.4 194.79 -114.58 184.54 -115.19 172.31 C-115.24 171.56 -115.29 170.81 -115.34 170.03 C-115.9 155.88 -110.23 143.58 -102.19 132.31 C-101.61 131.45 -101.03 130.58 -100.44 129.69 C-96.83 125.88 -92.59 123.13 -88.19 120.31 C-87.57 119.92 -86.96 119.52 -86.32 119.12 C-79.58 115.31 -71.66 114.02 -64.19 112.31 C-66.79 94.56 -86.48 75.75 -100.27 65.26 C-119.53 51.25 -141.18 44.02 -164.98 43.98 C-166.16 43.97 -167.34 43.96 -168.56 43.96 C-171.05 43.95 -173.54 43.94 -176.03 43.94 C-179.78 43.94 -183.53 43.9 -187.29 43.86 C-222.66 43.7 -252.01 54.77 -276.19 81.31 Z M-86.13 145.64 C-93.52 155.72 -95.33 163.72 -94.19 176.31 C-92.22 186.14 -86.57 193.53 -78.38 199.19 C-69.93 203.99 -60.65 205.59 -51.25 203.19 C-42.56 200.37 -35.25 194.09 -30.96 186.01 C-26.68 176.63 -25.47 167.39 -28.94 157.44 C-30.6 153.37 -32.51 149.82 -35.19 146.31 C-35.79 145.47 -36.38 144.62 -37 143.75 C-42.66 137.44 -49.43 134 -57.86 132.99 C-68.98 132.52 -78.99 137.09 -86.13 145.64 Z M-292.19 157.31 C-297.2 162.66 -298.56 167.78 -298.47 175 C-297.87 179.89 -295.34 183.13 -291.94 186.62 C-287.81 189.16 -283.97 190.76 -279.07 189.97 C-273.98 188.35 -271.11 185.86 -268.19 181.31 C-265.72 175.34 -265.57 169.42 -267.94 163.39 C-270.19 158.97 -272.81 156.54 -277.19 154.31 C-283.21 152.53 -287.26 153.67 -292.19 157.31 Z M-221.62 162.38 C-224.15 167.36 -223.93 172.89 -223.19 178.31 C-220.77 183.33 -217.19 186.81 -212.19 189.31 C-207.54 189.88 -204.09 189.77 -199.88 187.62 C-194.4 182.92 -191.52 178.73 -190.81 171.5 C-190.95 166.82 -192.55 163.14 -195.19 159.31 C-199.98 154.86 -203.17 153.89 -209.58 153.97 C-215.26 154.71 -218.19 158.06 -221.62 162.38 Z " fill="#000000" transform="translate(1253.1875,318.6875)"/>
<path d="M0 0 C1.2 -0.01 2.4 -0.01 3.64 -0.02 C4.96 -0.02 6.27 -0.02 7.63 -0.02 C9.03 -0.03 10.43 -0.03 11.84 -0.04 C15.64 -0.05 19.45 -0.06 23.26 -0.06 C25.64 -0.06 28.02 -0.07 30.4 -0.07 C37.84 -0.08 45.28 -0.09 52.72 -0.1 C61.32 -0.1 69.91 -0.12 78.5 -0.15 C85.14 -0.17 91.78 -0.18 98.42 -0.18 C102.39 -0.18 106.36 -0.19 110.32 -0.21 C114.06 -0.22 117.79 -0.23 121.52 -0.22 C123.54 -0.22 125.56 -0.23 127.58 -0.24 C128.18 -0.24 128.18 -0.24 131.23 -0.23 C132.28 -0.23 133.33 -0.23 134.4 -0.23 C138.5 0.31 141.12 2.05 144.06 4.89 C145.84 8.27 145.82 10.36 145.24 14.14 C143.8 17.21 142.05 19.22 139.24 21.14 C134.6 22.18 129.97 22.06 125.24 21.98 C123.81 21.99 122.38 21.99 120.95 22 C117.07 22.02 113.19 21.99 109.32 21.95 C105.26 21.92 101.2 21.92 97.14 21.92 C90.32 21.92 83.5 21.88 76.69 21.83 C68.81 21.78 60.93 21.75 53.06 21.75 C44.66 21.75 36.27 21.72 27.88 21.69 C25.46 21.68 23.04 21.68 20.63 21.67 C16.83 21.66 13.03 21.64 9.23 21.61 C7.84 21.6 6.45 21.59 5.06 21.59 C3.15 21.59 1.25 21.57 -0.65 21.55 C-1.72 21.54 -2.78 21.54 -3.88 21.53 C-7.21 21.08 -9.07 20.13 -11.76 18.14 C-14.22 14.45 -14.56 11.43 -13.76 7.14 C-10.42 1.16 -6.52 0.02 0 0 Z " fill="#000000" transform="translate(642.7559509277344,355.85955810546875)"/>
<path d="M0 0 C5 -0.07 8.21 0.16 12.4 3.05 C14.98 6.04 15.4 7.52 15.4 11.49 C14.23 15.66 13.02 18.62 9.4 21.05 C5.02 22.01 0.69 21.99 -3.78 22 C-4.43 22.01 -4.43 22.01 -7.69 22.07 C-10.41 22.12 -13.13 22.14 -15.85 22.15 C-19.33 22.17 -22.81 22.23 -26.29 22.3 C-29.62 22.37 -32.95 22.4 -36.28 22.44 C-37.53 22.46 -38.77 22.48 -40.05 22.51 C-50.78 22.52 -50.78 22.52 -55.6 18.05 C-58.18 14.64 -58.04 11.21 -57.6 7.05 C-55.8 4.3 -54.55 2.53 -51.6 1.05 C-50.07 0.93 -48.54 0.88 -47.02 0.85 C-46.06 0.83 -45.11 0.81 -44.13 0.79 C-43.1 0.77 -42.07 0.75 -41 0.74 C-39.94 0.72 -38.87 0.69 -37.78 0.67 C-34.36 0.61 -30.95 0.55 -27.54 0.49 C-25.26 0.45 -22.99 0.4 -20.71 0.36 C-13.81 0.23 -6.9 0.14 0 0 Z " fill="#000000" transform="translate(685.5983581542969,406.9470520019531)"/>
<path d="M0 0 C0.84 -0.01 1.69 -0.02 2.56 -0.03 C3.01 -0.03 3.01 -0.03 5.31 -0.04 C6.25 -0.05 7.19 -0.05 8.16 -0.06 C10.14 -0.07 12.13 -0.08 14.11 -0.08 C17.15 -0.09 20.18 -0.12 23.21 -0.15 C25.14 -0.16 27.07 -0.16 29 -0.17 C29.91 -0.18 30.81 -0.19 31.75 -0.2 C37.91 -0.18 41.26 0.86 45.9 5.08 C48.84 9.86 49.8 15.04 51.04 20.47 C51.31 21.6 51.58 22.72 51.85 23.87 C52.51 26.63 53.16 29.4 53.79 32.16 C56.78 33.18 59.63 33.95 62.79 34.16 C65.87 32.31 65.87 32.31 68.48 29.54 C73.94 23.89 78.51 19.54 86.56 19 C92.86 19.45 96.9 24.03 101 28.33 C102.73 30.1 104.53 31.69 106.42 33.29 C110.24 36.61 113.91 40.07 117.54 43.6 C118.1 44.12 118.65 44.65 119.22 45.19 C123.38 49.28 127.65 54.27 127.87 60.36 C126.98 69.1 118.7 77.25 112.79 83.16 C113.78 86.46 114.77 89.76 115.79 93.16 C116.42 93.2 116.42 93.2 119.6 93.42 C138.59 94.93 138.59 94.93 144.79 100.16 C149.14 105.34 149.39 109.46 149.36 116.09 C149.36 117.04 149.37 117.99 149.38 118.97 C149.38 120.97 149.38 122.97 149.37 124.97 C149.35 128.02 149.39 131.06 149.43 134.11 C149.43 136.06 149.43 138.01 149.42 139.97 C149.43 140.87 149.45 141.77 149.46 142.7 C149.37 148.99 147.9 153.33 143.79 158.16 C138.34 162.29 133.04 163.09 126.35 163.91 C125.43 164.04 124.51 164.16 123.56 164.29 C121.3 164.59 119.05 164.88 116.79 165.16 C116.13 167.47 115.47 169.78 114.79 172.16 C118.09 175.13 121.39 178.1 124.79 181.16 C125.12 179.51 125.45 177.86 125.79 176.16 C130.74 175.98 134.68 176.48 139.4 177.99 C140.01 178.18 140.01 178.18 143.13 179.17 C144.41 179.58 145.7 180 146.98 180.41 C148.23 180.81 149.48 181.2 150.77 181.61 C158.47 184.05 166.14 186.59 173.79 189.16 C173.78 188.6 173.78 188.03 173.77 187.45 C173.7 181.53 173.66 175.61 173.63 169.68 C173.61 167.48 173.59 165.28 173.57 163.07 C173.53 159.89 173.51 156.7 173.5 153.52 C173.48 152.55 173.47 151.57 173.45 150.57 C173.45 133.96 180.54 119.33 192.1 107.72 C207.56 93.02 224.77 89.7 245.34 89.76 C247.19 89.75 249.04 89.74 250.88 89.74 C255.87 89.72 260.86 89.72 265.85 89.73 C270.03 89.73 274.21 89.72 278.39 89.72 C288.26 89.7 298.13 89.7 307.99 89.72 C318.14 89.73 328.28 89.71 338.43 89.69 C347.17 89.66 355.92 89.66 364.66 89.66 C369.87 89.67 375.07 89.66 380.28 89.65 C385.18 89.63 390.08 89.64 394.99 89.65 C396.77 89.66 398.56 89.65 400.34 89.64 C420.38 89.53 438.34 93.54 453.79 107.16 C454.16 107.48 454.16 107.48 456.03 109.11 C468.87 121.09 477.2 137.61 478.79 155.16 C478.99 162.14 478.54 168.96 477.8 175.9 C477.69 176.94 477.58 177.98 477.47 179.05 C477.1 182.52 476.73 186 476.35 189.47 C476.29 190.09 476.29 190.09 475.96 193.22 C473.15 219.56 470.07 245.86 466.96 272.17 C466.87 273 466.77 273.82 466.67 274.68 C466.47 276.38 466.27 278.08 466.07 279.78 C463.27 303.47 460.55 327.18 457.82 350.89 C457.29 355.43 456.77 359.96 456.25 364.5 C455.99 366.69 455.74 368.88 455.49 371.07 C454.89 376.28 454.29 381.49 453.69 386.69 C452.72 395.01 451.77 403.33 450.86 411.66 C450.79 412.27 450.79 412.27 450.45 415.33 C450.22 417.43 449.99 419.52 449.77 421.61 C448.42 433.79 445.05 445.12 437.79 455.16 C437.35 455.78 436.91 456.4 436.46 457.04 C428.11 467.76 414.94 474.55 401.79 477.16 C399.24 477.34 396.68 477.42 394.12 477.43 C393.76 477.43 393.76 477.43 391.91 477.44 C389.49 477.45 387.08 477.45 384.66 477.45 C382.91 477.46 381.17 477.46 379.43 477.47 C374.71 477.49 369.98 477.49 365.26 477.5 C362.31 477.5 359.35 477.5 356.4 477.51 C346.07 477.53 335.75 477.53 325.43 477.53 C315.83 477.53 306.23 477.55 296.63 477.58 C288.37 477.61 280.11 477.62 271.85 477.62 C266.92 477.62 262 477.62 257.07 477.65 C252.43 477.66 247.8 477.66 243.16 477.65 C241.47 477.65 239.78 477.65 238.08 477.66 C222.07 477.77 207.68 474.74 195.29 463.75 C181.4 448.99 178.69 433.04 178.19 413.46 C178.17 412.82 178.17 412.82 178.08 409.6 C177.97 406.24 177.88 402.87 177.79 399.51 C177.66 394.85 177.51 390.19 177.37 385.53 C177.3 382.91 177.22 380.3 177.14 377.69 C176.78 365.17 176.3 352.67 175.79 340.16 C175.1 339.98 174.4 339.8 173.68 339.61 C167.8 338.03 162.03 336.31 156.29 334.27 C155.53 334 154.77 333.74 153.99 333.46 C152.39 332.9 150.79 332.33 149.2 331.77 C146.83 330.92 144.45 330.09 142.08 329.25 C140.5 328.7 138.93 328.14 137.35 327.58 C136.68 327.34 136 327.11 135.3 326.86 C134.95 326.73 134.95 326.73 133.17 326.1 C132.38 325.83 131.59 325.55 130.77 325.27 C128.37 324.37 126.03 323.42 123.67 322.41 C112.63 317.81 103.21 316.22 91.28 316.57 C88.53 316.66 85.77 316.69 83.01 316.72 C78.15 316.77 73.3 316.87 68.44 316.97 C60.65 317.14 52.86 317.28 45.07 317.36 C42.38 317.4 39.69 317.47 37 317.55 C26.49 317.75 18.49 316.58 8.79 312.16 C7.84 311.74 6.88 311.31 5.9 310.87 C3.45 309.76 1.06 308.57 -1.33 307.35 C-2.19 306.91 -3.04 306.48 -3.92 306.03 C-18.12 298.69 -33.55 289.38 -38.81 273.33 C-40.18 265.88 -40.52 257.39 -36.46 250.77 C-32.11 245.19 -26.94 242.74 -20.21 241.16 C-19.22 241.16 -18.23 241.16 -17.21 241.16 C-17.54 240.17 -17.87 239.18 -18.21 238.16 C-18.28 236.27 -18.29 234.37 -18.27 232.47 C-18.26 231.48 -18.25 230.49 -18.24 229.46 C-18.23 228.7 -18.22 227.94 -18.21 227.16 C-19.6 226.82 -21 226.49 -22.4 226.16 C-23.17 225.98 -23.95 225.79 -24.75 225.6 C-29.51 224.75 -29.51 224.75 -32.21 225.16 C-34.47 226.87 -36.46 228.55 -38.52 230.47 C-44.52 235.8 -48.73 238.94 -57.08 239.35 C-66.77 237.52 -73.96 227.41 -80.24 220.42 C-83.69 216.58 -87.39 213.02 -91.15 209.48 C-95.08 205.05 -97.02 200.53 -96.82 194.65 C-94.93 186.95 -87.84 180.46 -82.36 175.01 C-81.21 173.16 -81.21 173.16 -81.46 170.62 C-82.02 168.79 -82.6 166.97 -83.21 165.16 C-83.57 165.11 -83.57 165.11 -85.42 164.86 C-88.75 164.39 -92.07 163.9 -95.4 163.41 C-96.55 163.25 -97.7 163.1 -98.88 162.93 C-99.44 162.85 -99.44 162.85 -102.25 162.43 C-103.27 162.28 -104.29 162.13 -105.35 161.98 C-109.92 160.67 -112.35 158.43 -114.99 154.53 C-116.62 150.01 -116.66 145.97 -116.64 141.2 C-116.65 140.24 -116.65 139.29 -116.66 138.31 C-116.66 136.31 -116.66 134.3 -116.65 132.29 C-116.65 129.24 -116.67 126.18 -116.71 123.12 C-116.71 121.17 -116.71 119.21 -116.7 117.26 C-116.72 116.35 -116.73 115.44 -116.74 114.51 C-116.67 108.55 -115.71 105.03 -112.21 100.16 C-107.17 96.47 -102.85 95.44 -96.71 94.91 C-95.99 94.83 -95.27 94.76 -94.52 94.68 C-90.07 94.23 -85.69 94.09 -81.21 94.16 C-81.06 93.25 -80.92 92.35 -80.77 91.41 C-80.21 88.16 -80.21 88.16 -79.54 86.16 C-79.21 84.16 -79.21 84.16 -81.41 80.92 C-82.41 79.7 -83.43 78.49 -84.46 77.29 C-89.43 71.38 -93.45 66.47 -93.7 58.38 C-92.29 52.05 -87.99 47.51 -83.46 43.16 C-82.93 42.64 -82.39 42.12 -81.85 41.58 C-78.4 38.24 -74.88 35 -71.22 31.89 C-67.85 29 -64.59 25.98 -61.31 22.98 C-57.98 20.1 -55.34 19.64 -50.91 19.68 C-43.68 20.96 -37.4 26.12 -31.83 30.66 C-29.07 32.82 -28.56 33.16 -24.9 33.16 C-22.21 32.16 -22.21 32.16 -19.21 30.16 C-18.44 27.27 -17.81 24.47 -17.27 21.54 C-15.98 14.52 -14.53 7.28 -9.15 2.22 C-6.04 0.52 -3.48 0.03 0 0 Z M1.79 21.16 C1.49 22.94 1.25 24.72 1.04 26.51 C0.97 27.05 0.97 27.05 0.64 29.78 C0.57 30.35 0.57 30.35 0.23 33.22 C0.09 34.36 -0.05 35.5 -0.19 36.68 C-0.53 39.51 -0.87 42.33 -1.21 45.16 C-2.06 45.4 -2.92 45.63 -3.8 45.88 C-11.54 48.04 -18.11 50.97 -25.11 54.87 C-28.62 56.33 -29.66 56.22 -33.21 55.16 C-35.17 53.87 -35.17 53.87 -37.02 52.25 C-37.36 51.97 -37.36 51.97 -39.09 50.5 C-40.5 49.27 -41.91 48.05 -43.33 46.82 C-43.67 46.53 -43.67 46.53 -45.4 45.07 C-46.01 44.53 -46.62 44 -47.25 43.45 C-49.69 41.85 -51.28 41.25 -54.21 41.16 C-56.43 42.7 -56.43 42.7 -58.63 45 C-59.43 45.82 -60.23 46.63 -61.05 47.47 C-61.86 48.34 -62.68 49.21 -63.52 50.1 C-64.36 50.96 -65.19 51.82 -66.05 52.71 C-68.12 54.85 -70.17 57 -72.21 59.16 C-69.43 63.47 -66.66 67.74 -63.36 71.67 C-62.92 72.2 -62.48 72.73 -62.03 73.28 C-61.13 74.35 -60.22 75.41 -59.29 76.45 C-57.99 78.05 -57.99 78.05 -56.21 81.16 C-56.71 84.1 -56.71 84.1 -58.21 87.16 C-58.48 87.74 -58.48 87.74 -59.86 90.68 C-60.78 92.54 -61.7 94.4 -62.64 96.24 C-65.15 101.4 -66.28 106.52 -67.21 112.16 C-68.08 112.22 -68.96 112.27 -69.85 112.33 C-73.08 112.54 -76.31 112.75 -79.54 112.96 C-80.94 113.05 -82.34 113.14 -83.74 113.23 C-85.75 113.36 -87.76 113.49 -89.77 113.63 C-90.98 113.7 -92.19 113.78 -93.43 113.86 C-96.21 114.16 -96.21 114.16 -97.21 115.16 C-97.49 119.63 -97.44 124.12 -97.46 128.6 C-97.48 129.87 -97.5 131.13 -97.52 132.44 C-97.53 133.64 -97.53 134.85 -97.54 136.09 C-97.55 137.21 -97.56 138.32 -97.56 139.47 C-97.45 140.36 -97.33 141.25 -97.21 142.16 C-93.89 144.38 -92.15 144.59 -88.23 145.01 C-87.06 145.14 -85.9 145.27 -84.7 145.4 C-84.1 145.47 -84.1 145.47 -81.02 145.79 C-80.41 145.85 -80.41 145.85 -77.3 146.19 C-74.27 146.52 -71.24 146.85 -68.21 147.16 C-67.82 148.37 -67.44 149.57 -67.04 150.82 C-66.51 152.43 -65.98 154.05 -65.46 155.66 C-65.21 156.45 -64.95 157.24 -64.69 158.06 C-63.15 162.78 -61.36 167.05 -58.87 171.35 C-58 173.72 -58.3 174.83 -59.21 177.16 C-60.36 178.82 -60.36 178.82 -61.79 180.44 C-62.31 181.03 -62.83 181.63 -63.37 182.25 C-63.91 182.86 -64.46 183.47 -65.02 184.1 C-66.61 185.9 -68.19 187.7 -69.77 189.51 C-71.06 190.99 -72.36 192.45 -73.66 193.92 C-73.91 194.29 -73.91 194.29 -75.21 196.16 C-73.94 199.95 -72.1 201.4 -69.21 204.16 C-68.1 205.27 -66.98 206.38 -65.88 207.49 C-65.59 207.78 -65.59 207.78 -64.15 209.22 C-61.5 211.87 -58.85 214.51 -56.21 217.16 C-52.62 215.87 -49.92 214.37 -46.96 211.97 C-46.57 211.67 -46.57 211.67 -44.61 210.12 C-42.99 208.8 -41.39 207.45 -39.8 206.08 C-39.03 205.42 -38.26 204.77 -37.46 204.1 C-36.76 203.49 -36.07 202.88 -35.35 202.25 C-33.21 201.16 -33.21 201.16 -30.82 201.8 C-30.39 202.02 -30.39 202.02 -28.21 203.16 C-27.26 203.61 -26.31 204.06 -25.33 204.53 C-24.3 205.03 -23.27 205.52 -22.21 206.04 C-6.89 213.16 -6.89 213.16 -0.21 213.16 C-0.22 214.03 -0.23 214.9 -0.24 215.8 C-0.4 236.77 -0.4 236.77 1.79 241.16 C5.74 241.24 9.69 241.29 13.64 241.33 C15.65 241.35 17.66 241.39 19.66 241.42 C20.92 241.43 22.18 241.44 23.47 241.45 C24.05 241.46 24.05 241.46 26.99 241.5 C27.46 241.45 27.46 241.45 29.79 241.16 C32.01 237.83 32.15 236.32 32.42 232.4 C32.51 231.28 32.59 230.16 32.68 229.01 C32.76 227.84 32.84 226.68 32.92 225.47 C32.96 224.88 32.96 224.88 33.18 221.9 C33.39 218.99 33.59 216.08 33.79 213.16 C34.41 213.06 35.03 212.95 35.67 212.85 C41.69 211.75 47.06 210.1 52.67 207.66 C53.4 207.35 54.13 207.04 54.89 206.73 C58.24 205.31 61.56 203.85 64.79 202.16 C71.84 207.77 78.83 213.44 85.79 219.16 C89.9 217.54 92.64 214.57 95.67 211.47 C96.2 210.93 96.73 210.39 97.27 209.84 C98.79 208.29 100.29 206.73 101.79 205.16 C102.5 204.43 103.21 203.7 103.94 202.95 C105.6 201.16 105.6 201.16 107.79 198.16 C107.49 194.71 105.89 192.76 103.67 190.19 C103.04 189.46 102.42 188.72 101.78 187.96 C101.12 187.2 100.47 186.44 99.79 185.66 C98.49 184.16 97.2 182.65 95.92 181.13 C95.34 180.46 94.77 179.8 94.17 179.11 C92.7 177.04 92.07 175.68 91.79 173.16 C92.8 170.62 93.86 168.27 95.1 165.85 C98.18 159.74 100.79 154.15 100.79 147.16 C101.63 147.08 102.48 146.99 103.35 146.9 C106.46 146.58 109.58 146.26 112.7 145.93 C114.05 145.79 115.4 145.66 116.75 145.52 C118.69 145.32 120.63 145.12 122.57 144.92 C123.74 144.79 124.9 144.67 126.11 144.55 C128.79 144.16 128.79 144.16 129.79 143.16 C129.88 141.09 129.9 139.01 129.89 136.94 C129.89 135.68 129.88 134.42 129.88 133.12 C129.87 131.78 129.86 130.44 129.85 129.1 C129.85 127.75 129.84 126.41 129.84 125.07 C129.83 121.76 129.81 118.46 129.79 115.16 C123.8 113.12 118.16 112.74 111.85 112.54 C110.88 112.5 109.91 112.46 108.91 112.42 C106.54 112.33 104.17 112.24 101.79 112.16 C101.72 111.83 101.72 111.83 101.34 110.13 C99.69 102.92 96.8 96.62 93.4 90.09 C93.22 89.74 93.22 89.74 92.34 87.98 C92.02 87.37 91.7 86.75 91.36 86.11 C90.58 83.44 90.97 81.81 91.79 79.16 C93.11 77 93.11 77 94.77 74.88 C95.36 74.1 95.94 73.32 96.55 72.52 C97.8 70.9 99.05 69.28 100.31 67.67 C100.89 66.89 101.48 66.11 102.08 65.31 C102.62 64.61 103.17 63.91 103.73 63.19 C104.79 61.16 104.79 61.16 104.67 59.15 C102.83 54.99 99.21 52.03 96.04 48.85 C95.32 48.1 94.61 47.34 93.87 46.57 C93.17 45.86 92.47 45.15 91.74 44.42 C91.43 44.1 91.43 44.1 89.81 42.45 C87.79 41.16 87.79 41.16 85.28 41.28 C82.66 42.21 81.16 43.19 79.09 45.03 C78.44 45.61 77.79 46.18 77.12 46.77 C76.45 47.38 75.79 47.98 75.1 48.6 C74.43 49.2 73.75 49.8 73.06 50.41 C70.58 52.61 68.14 54.82 65.79 57.16 C61.41 56.84 58.05 54.84 54.23 52.79 C47.95 49.49 41.78 47.51 34.79 46.16 C34.74 45.59 34.69 45.01 34.64 44.42 C34.41 41.79 34.16 39.16 33.92 36.54 C33.84 35.63 33.76 34.73 33.68 33.8 C33.59 32.91 33.51 32.03 33.42 31.12 C33.35 30.32 33.28 29.51 33.2 28.68 C32.72 25.7 31.8 23 30.79 20.16 C26.82 20.14 22.85 20.12 18.88 20.11 C17.53 20.1 16.18 20.09 14.83 20.09 C12.89 20.07 10.95 20.07 9.01 20.06 C7.85 20.06 6.68 20.05 5.48 20.05 C2.79 20.16 2.79 20.16 1.79 21.16 Z M203.54 127.04 C197.11 136.24 194.41 145.18 194.61 156.46 C194.62 157.29 194.62 158.12 194.63 158.98 C194.8 173.31 195.25 187.65 195.66 201.98 C195.75 205.23 195.84 208.47 195.93 211.72 C196.01 214.9 196.1 218.08 196.19 221.26 C196.23 222.76 196.28 224.25 196.32 225.75 C196.59 235.9 197.1 246.03 197.79 256.16 C198.33 256.33 198.87 256.5 199.43 256.68 C205.06 258.46 210.69 260.25 216.32 262.03 C218.42 262.7 220.52 263.36 222.62 264.03 C225.64 264.99 228.66 265.94 231.68 266.9 C232.61 267.2 233.55 267.5 234.52 267.8 C235.4 268.08 236.28 268.36 237.18 268.65 C238 268.91 238.82 269.17 239.66 269.43 C241.79 270.16 241.79 270.16 244.61 271.43 C247.44 272.38 248.98 272.13 251.79 271.16 C253.72 269.71 253.72 269.71 255.53 267.84 C256.21 267.16 256.88 266.48 257.58 265.78 C257.92 265.42 257.92 265.42 259.67 263.6 C260.01 263.25 260.01 263.25 261.73 261.5 C265.03 258.13 268.22 254.7 271.3 251.13 C275.55 246.22 280.19 241.71 284.83 237.16 C288.8 233.24 292.56 229.2 296.2 224.97 C298.29 222.59 300.52 220.37 302.79 218.16 C307.01 213.99 310.95 209.68 314.79 205.16 C316.04 203.7 317.29 202.24 318.54 200.79 C319.09 200.14 319.64 199.49 320.21 198.83 C321.79 197.16 321.79 197.16 324.79 195.16 C325.16 192.14 325.16 192.14 325.23 188.35 C325.84 173.8 330.89 161.53 341.48 151.35 C352.72 141.83 364.72 138.6 379.2 138.85 C391.46 139.92 403.02 145.58 411.79 154.16 C421.88 166.55 425.13 179.36 423.79 195.16 C421.49 207.77 414.81 219.12 404.79 227.16 C399.47 230.71 394.14 233.73 388.1 235.85 C381.75 238.53 378.6 244.71 374.79 250.16 C370.6 255.5 366.21 260.68 361.8 265.85 C361.35 266.38 360.89 266.92 360.42 267.47 C359.95 268.02 359.49 268.56 359.02 269.12 C355.7 273.04 352.5 277.04 349.35 281.1 C345.08 286.6 340.63 291.92 336.06 297.19 C332.55 301.25 329.18 305.39 325.85 309.6 C323.38 312.67 320.84 315.67 318.29 318.66 C315.07 322.45 311.88 326.26 308.79 330.16 C286.2 358.53 286.2 358.53 266.79 363.16 C253.59 364.61 242.14 362.56 229.79 358.16 C227.31 357.31 224.83 356.45 222.35 355.6 C218.37 354.24 214.39 352.86 210.41 351.46 C209.2 351.04 207.98 350.61 206.73 350.17 C205.64 349.79 204.54 349.4 203.41 349 C200.79 348.16 200.79 348.16 198.79 348.16 C199.03 356.01 199.28 363.86 199.52 371.72 C199.64 375.36 199.75 379.01 199.86 382.66 C200.12 390.93 200.38 399.2 200.67 407.47 C200.78 410.84 200.88 414.21 200.98 417.58 C201.04 419.44 201.1 421.29 201.17 423.15 C201.19 423.95 201.21 424.75 201.23 425.57 C201.54 433.5 203.47 440.7 208.99 446.59 C219.32 455.6 231.27 455.46 244.24 455.44 C245.91 455.44 247.58 455.45 249.25 455.45 C253.77 455.46 258.28 455.47 262.8 455.46 C266.58 455.46 270.36 455.47 274.14 455.47 C283.06 455.48 291.98 455.48 300.9 455.48 C310.09 455.47 319.28 455.48 328.46 455.5 C336.37 455.52 344.27 455.53 352.17 455.52 C356.88 455.52 361.6 455.53 366.31 455.54 C370.74 455.55 375.18 455.55 379.61 455.54 C381.23 455.53 382.85 455.54 384.48 455.55 C396.75 455.6 407.46 455.01 416.79 446.16 C426.28 436.38 427.23 424.5 428.64 411.49 C428.93 408.77 429.24 406.06 429.54 403.35 C430.02 399.08 430.5 394.81 430.97 390.54 C432.5 376.78 434.07 363.03 435.63 349.27 C435.92 346.78 436.2 344.28 436.49 341.78 C439.76 312.96 443.13 284.15 446.54 255.35 C446.66 254.39 446.77 253.42 446.89 252.43 C447.44 247.73 448 243.03 448.56 238.33 C448.99 234.69 449.42 231.05 449.85 227.41 C450.84 219.09 451.83 210.78 452.87 202.47 C453.34 198.65 453.81 194.83 454.28 191.02 C454.5 189.22 454.73 187.43 454.96 185.64 C457.54 165.34 458.55 147.82 446.42 130.17 C438.91 120.62 426.7 114.07 414.79 112.16 C412.23 112.06 409.7 112.01 407.13 112.01 C406.37 112 405.61 112 404.82 111.99 C402.27 111.98 399.71 111.97 397.16 111.97 C395.32 111.96 393.49 111.95 391.66 111.94 C385.64 111.92 379.62 111.9 373.6 111.89 C371.52 111.88 369.45 111.88 367.37 111.87 C358.74 111.85 350.1 111.83 341.47 111.82 C329.11 111.8 316.75 111.77 304.39 111.71 C295.69 111.67 286.99 111.66 278.3 111.65 C273.1 111.65 267.91 111.63 262.72 111.6 C257.84 111.57 252.95 111.57 248.06 111.58 C246.27 111.58 244.49 111.57 242.7 111.55 C227.29 111.41 213.59 114.27 203.54 127.04 Z M354.1 168.35 C348.87 173.91 346.59 179.46 346.29 187.1 C346.61 195.77 349.58 203.09 355.79 209.16 C362.63 214.44 369.8 216.72 378.43 216.47 C385.54 215.54 391.49 212.53 396.25 207.19 C402.57 198.87 403.9 191.54 402.79 181.16 C401.57 174.55 397.78 169.55 392.79 165.16 C379.75 156.32 365.56 157.82 354.1 168.35 Z M130.79 197.16 C130.27 198.33 129.75 199.49 129.21 200.69 C126.85 205.41 123.7 208.91 120.04 212.66 C119.74 212.98 119.74 212.98 118.22 214.58 C116.75 216.11 115.27 217.64 113.79 219.16 C115.16 221.9 116.5 221.92 119.35 222.91 C124.77 225.01 130.54 227.73 133.83 232.75 C138.63 239.66 146.09 240.96 153.79 243.04 C155.16 243.43 156.53 243.82 157.89 244.22 C163.49 245.81 169.02 247.29 174.79 248.16 C174.82 244 174.83 239.84 174.85 235.67 C174.85 234.26 174.86 232.85 174.87 231.43 C174.88 229.39 174.88 227.35 174.89 225.31 C174.89 224.08 174.9 222.86 174.91 221.6 C174.8 218.36 174.41 215.34 173.79 212.16 C168.31 210.18 162.83 208.21 157.35 206.23 C155.48 205.56 153.62 204.89 151.76 204.22 C149.08 203.25 146.39 202.29 143.71 201.32 C142.88 201.02 142.05 200.72 141.19 200.41 C140.41 200.13 139.63 199.85 138.83 199.56 C138.14 199.31 137.46 199.07 136.75 198.81 C134.78 198.16 132.81 197.64 130.79 197.16 Z M331.31 216.41 C327.58 220.23 324.02 224.15 320.54 228.19 C318.34 230.67 316 232.97 313.63 235.29 C311.86 237.09 310.21 238.95 308.57 240.88 C304.21 245.9 299.49 250.51 294.75 255.16 C290.79 259.08 287.05 263.09 283.42 267.31 C281.13 269.91 278.7 272.31 276.23 274.72 C273.21 277.68 270.33 280.64 267.73 283.97 C264.25 288.1 259.93 291.47 254.79 293.16 C247.34 293.14 240.53 291.09 233.52 288.77 C232.46 288.42 231.4 288.08 230.3 287.73 C226.86 286.61 223.42 285.48 219.98 284.35 C217.6 283.57 215.22 282.8 212.84 282.03 C208.07 280.48 203.3 278.92 198.54 277.36 C192.52 275.4 186.49 273.45 180.46 271.5 C177.97 270.7 175.48 269.9 172.99 269.1 C171.46 268.61 169.94 268.11 168.41 267.62 C160.86 265.19 153.34 262.71 145.93 259.85 C143.79 259.16 143.79 259.16 140.79 259.16 C140.63 260.17 140.47 261.17 140.31 262.2 C138.21 274.78 135.12 285.84 127.24 296.14 C125.79 298.16 125.79 298.16 124.79 301.16 C137.44 305.48 150.1 309.8 162.75 314.12 C165.75 315.15 168.76 316.17 171.77 317.2 C173.75 317.88 175.73 318.55 177.71 319.23 C178.2 319.4 178.2 319.4 180.69 320.25 C185.64 321.94 190.6 323.62 195.55 325.3 C197.51 325.97 199.48 326.63 201.44 327.29 C202.39 327.62 203.35 327.94 204.34 328.28 C209.81 330.13 215.26 332.02 220.71 333.95 C223.97 335.1 227.24 336.23 230.51 337.36 C232 337.88 233.48 338.41 234.97 338.95 C245.82 342.88 257.45 345.89 268.73 341.6 C280.89 335.03 289.23 322.43 297.63 311.82 C300.8 307.92 304.09 304.14 307.37 300.34 C310.92 296.2 314.36 291.99 317.74 287.72 C320.64 284.1 323.65 280.58 326.66 277.05 C329.55 273.64 332.41 270.2 335.23 266.72 C338.68 262.48 342.22 258.31 345.79 254.16 C349.57 249.77 353.33 245.36 357.04 240.91 C357.77 240.04 358.5 239.17 359.24 238.27 C360.79 236.16 360.79 236.16 360.79 234.16 C359.67 233.62 358.55 233.08 357.4 232.52 C355.92 231.79 354.45 231.07 352.98 230.35 C352.24 229.99 351.5 229.64 350.74 229.27 C350.03 228.92 349.32 228.57 348.58 228.2 C347.93 227.88 347.28 227.57 346.6 227.24 C344.79 226.16 344.79 226.16 343.18 224.53 C341.79 223.16 341.79 223.16 339.79 223.16 C339.66 222.87 339.66 222.87 338.98 221.41 C337.76 219.11 336.49 217.14 334.79 215.16 C332.79 215.16 332.79 215.16 331.31 216.41 Z M60.79 225.16 C57.14 225.28 54.68 225.88 51.79 228.16 C49.4 233.46 48.67 239.46 47.79 245.16 C48.45 245.16 49.11 245.16 49.79 245.16 C50.24 244.2 50.69 243.23 51.15 242.24 C51.76 240.96 52.37 239.69 52.98 238.41 C53.27 237.78 53.56 237.14 53.86 236.49 C55.88 232.33 57.88 229.83 61.79 227.16 C61.46 226.5 61.13 225.84 60.79 225.16 Z M73.79 241.16 C72.47 243.14 72.47 243.14 71.67 245.35 C71.51 245.74 71.51 245.74 70.72 247.74 C70.57 248.14 70.57 248.14 69.79 250.16 C65.77 259.33 65.77 259.33 61.79 261.16 C54.24 262.35 46.75 262.21 39.12 262.05 C36.85 262 34.58 261.96 32.3 261.93 C27.49 261.84 22.67 261.75 17.85 261.66 C12.25 261.55 6.64 261.45 1.03 261.36 C-1.21 261.32 -3.45 261.27 -5.69 261.23 C-7.06 261.2 -8.42 261.18 -9.79 261.16 C-10.98 261.13 -12.18 261.11 -13.41 261.09 C-16.21 261.16 -16.21 261.16 -18.21 262.16 C-19.63 265.01 -19.13 266.43 -18.27 269.54 C-14.67 277.15 -4.95 281.25 2.04 285.22 C2.91 285.73 3.77 286.23 4.66 286.75 C7.34 288.28 10.06 289.73 12.79 291.16 C13.64 291.61 14.48 292.06 15.35 292.52 C24.18 296.7 32.36 296.88 41.9 296.79 C43.53 296.79 45.16 296.79 46.78 296.8 C50.16 296.8 53.55 296.79 56.93 296.76 C61.25 296.72 65.57 296.73 69.89 296.75 C73.24 296.76 76.59 296.75 79.93 296.74 C81.53 296.73 83.12 296.73 84.71 296.74 C86.94 296.74 89.17 296.72 91.39 296.69 C92.66 296.69 93.92 296.68 95.22 296.68 C102.26 295.66 106.8 291.66 111.23 286.3 C113.58 283.09 115.28 279.83 116.79 276.16 C117.09 275.5 117.39 274.83 117.7 274.15 C120.41 267.36 120.57 260.38 119.79 253.16 C118.23 249.66 118.23 249.66 115.79 247.16 C115.31 246.64 114.82 246.12 114.32 245.59 C107.07 238.51 98.73 237.9 89.04 237.79 C88.23 237.77 87.41 237.76 86.57 237.74 C81.61 237.78 78.01 238.29 73.79 241.16 Z " fill="#000000" transform="translate(763.20849609375,558.8388671875)"/>
<path d="M0 0 C10.9 9.36 17.85 20.03 19.8 34.48 C20.87 50.11 17.43 64.35 7.25 76.53 C-3.58 87.85 -15.86 94.54 -31.77 94.92 C-46.04 94.45 -60.96 89.55 -71.46 79.48 C-83.32 65.84 -86.2 50.46 -85.42 32.98 C-84.24 19.46 -75.82 7.81 -65.7 -0.73 C-46.01 -14.81 -19.21 -15.63 0 0 Z M-57.93 21.29 C-63.28 27.83 -65.89 35.66 -65.55 44.13 C-64.37 52.1 -61.02 59.84 -55.2 65.48 C-45.55 72.44 -37.02 74.68 -25.2 73.48 C-21.5 72.28 -18.43 70.64 -15.2 68.48 C-14.3 67.9 -13.39 67.33 -12.45 66.73 C-9.08 63.36 -6.65 59.56 -4.2 55.48 C-3.58 54.45 -2.97 53.42 -2.33 52.36 C0.32 45.45 -0.09 37.02 -2.27 30.09 C-6.68 20.53 -13.42 14.3 -23.2 10.48 C-36.5 6.36 -48.71 11.61 -57.93 21.29 Z " fill="#000000" transform="translate(813.203125,646.51953125)"/>
<path d="M0 0 C7.77 4.01 13.14 9.09 16.46 17.27 C18.69 25.59 18.72 34.77 14.56 42.46 C14.15 43.11 13.74 43.77 13.31 44.44 C13.11 44.77 13.11 44.77 12.1 46.48 C5.46 56.44 -6.37 62.25 -16.44 68.19 C-17.52 68.83 -18.61 69.48 -19.72 70.14 C-25.02 73.29 -30.33 76.4 -35.69 79.44 C-33.66 84.79 -31.11 89.89 -28.61 95.02 C-22.28 108.25 -21.11 121.4 -25.69 135.44 C-34.08 154.96 -49.02 161.7 -67.69 169.44 C-68.8 169.9 -69.91 170.36 -71.06 170.84 C-82.98 175.3 -93.27 173.72 -105.15 170.13 C-112.93 167.83 -112.93 167.83 -116.69 169.44 C-119.01 171.51 -119.01 171.51 -121.69 174.44 C-122.92 175.69 -124.15 176.94 -125.39 178.18 C-126.06 178.85 -126.73 179.53 -127.42 180.22 C-128.11 180.91 -128.79 181.6 -129.5 182.31 C-129.84 182.65 -129.84 182.65 -131.54 184.38 C-136.09 188.95 -140.8 193.23 -145.69 197.44 C-147.36 198.93 -149.03 200.43 -150.69 201.94 C-153.6 204.57 -156.53 207.18 -159.5 209.75 C-163.64 213.35 -167.66 217.08 -171.68 220.82 C-172.2 221.3 -172.71 221.78 -173.25 222.28 C-173.75 222.76 -174.26 223.25 -174.78 223.75 C-176.69 225.44 -176.69 225.44 -178.94 226.93 C-182.94 229.78 -185.31 232 -186.58 236.84 C-186.99 241.13 -187.12 245.35 -187.15 249.65 C-187.2 251.28 -187.25 252.91 -187.3 254.54 C-187.43 258.91 -187.51 263.28 -187.58 267.65 C-187.66 272.21 -187.79 276.77 -187.92 281.33 C-188.12 288.76 -188.29 296.19 -188.45 303.63 C-188.66 313.6 -188.94 323.58 -189.26 333.55 C-189.29 334.3 -189.31 335.04 -189.33 335.8 C-189.43 338.71 -189.52 341.62 -189.61 344.52 C-189.77 349.24 -189.91 353.96 -190.04 358.67 C-190.35 369.38 -190.67 380.09 -191.17 390.79 C-191.2 391.57 -191.24 392.36 -191.27 393.17 C-192.09 409.33 -197.69 422.38 -209.69 433.44 C-220.88 441.98 -231.86 445.59 -245.88 445.58 C-246.67 445.59 -247.47 445.59 -248.29 445.6 C-250.94 445.61 -253.6 445.61 -256.25 445.61 C-258.16 445.62 -260.07 445.63 -261.98 445.63 C-268.24 445.66 -274.5 445.67 -280.75 445.68 C-282.91 445.68 -285.07 445.68 -287.23 445.69 C-297.39 445.71 -307.54 445.72 -317.69 445.73 C-329.38 445.74 -341.07 445.77 -352.76 445.81 C-361.82 445.84 -370.87 445.85 -379.92 445.85 C-385.32 445.86 -390.72 445.87 -396.12 445.89 C-401.21 445.91 -406.29 445.92 -411.38 445.91 C-413.23 445.91 -415.09 445.91 -416.95 445.93 C-434.86 446.05 -447.98 442.48 -462.88 432.25 C-481.86 413.26 -482.81 390.04 -485.44 364.78 C-485.69 362.36 -485.95 359.93 -486.21 357.5 C-486.83 351.67 -487.44 345.83 -488.05 340 C-488.76 333.21 -489.48 326.43 -490.2 319.65 C-491.82 304.29 -493.43 288.94 -495.04 273.59 C-495.81 266.3 -496.57 259.02 -497.34 251.73 C-499.94 226.99 -502.53 202.23 -505.12 177.48 C-505.21 176.62 -505.3 175.75 -505.39 174.86 C-505.57 173.17 -505.74 171.49 -505.92 169.81 C-506.36 165.59 -506.8 161.37 -507.25 157.16 C-507.34 156.3 -507.44 155.44 -507.53 154.55 C-507.7 152.93 -507.88 151.31 -508.06 149.69 C-510.53 126.5 -508.32 105.39 -493.19 86.5 C-491.7 84.8 -490.21 83.11 -488.69 81.44 C-488.15 80.8 -487.61 80.17 -487.05 79.52 C-478.3 69.89 -466.07 63.83 -453.69 60.44 C-453.08 60.26 -452.47 60.09 -451.84 59.91 C-442.71 57.7 -433.36 58.15 -424.03 58.16 C-422.04 58.16 -420.05 58.15 -418.06 58.15 C-412.68 58.13 -407.29 58.13 -401.91 58.14 C-397.4 58.14 -392.9 58.13 -388.39 58.13 C-377.76 58.12 -367.12 58.12 -356.49 58.12 C-345.54 58.13 -334.59 58.12 -323.65 58.09 C-314.23 58.08 -304.81 58.07 -295.39 58.07 C-289.77 58.08 -284.15 58.07 -278.54 58.06 C-273.25 58.05 -267.97 58.05 -262.68 58.06 C-260.75 58.06 -258.82 58.06 -256.89 58.05 C-236.23 57.97 -219.02 61.44 -203.69 76.44 C-189.83 92.61 -187.37 109.88 -186.69 130.44 C-186.02 129.99 -185.35 129.54 -184.66 129.07 C-178.39 124.87 -172.09 120.73 -165.75 116.62 C-165.03 116.16 -164.31 115.69 -163.56 115.21 C-163.22 114.98 -163.22 114.98 -161.47 113.86 C-160.82 113.43 -160.17 113 -159.49 112.55 C-157.69 111.44 -157.69 111.44 -154.8 110.13 C-151.52 107.5 -151.43 104.06 -150.81 100.12 C-147.81 84.42 -140.31 70.69 -127.19 61.12 C-117.85 54.86 -107.79 49.66 -97.96 44.24 C-92.81 41.4 -87.68 38.52 -82.56 35.62 C-82.08 35.35 -82.08 35.35 -79.65 33.98 C-73.91 30.73 -68.24 27.39 -62.62 23.97 C-52.48 17.84 -42.05 12.17 -31.69 6.44 C-30.69 5.88 -29.68 5.32 -28.65 4.75 C-28.17 4.48 -28.17 4.48 -25.73 3.14 C-24.88 2.66 -24.03 2.19 -23.15 1.71 C-15.6 -2.18 -8.07 -3.26 0 0 Z M-18.69 22.69 C-19.94 23.43 -21.18 24.17 -22.43 24.91 C-23.11 25.31 -23.79 25.72 -24.49 26.14 C-28.55 28.54 -32.65 30.86 -36.75 33.19 C-38.57 34.23 -40.4 35.27 -42.22 36.31 C-52.72 42.31 -52.72 42.31 -55.22 43.74 C-56.92 44.71 -58.61 45.68 -60.31 46.65 C-65.42 49.57 -70.53 52.49 -75.64 55.4 C-81.6 58.8 -87.56 62.21 -93.51 65.62 C-96.31 67.22 -99.12 68.81 -101.93 70.4 C-115.19 77.93 -124.51 84.76 -129.5 99.89 C-130.05 102.08 -130.42 104.19 -130.69 106.44 C-130.73 106.78 -130.73 106.78 -130.94 108.54 C-131.52 118.5 -127.71 128.33 -121.72 136.16 C-113.59 145.29 -103.52 150.56 -91.44 152.56 C-78.43 153.19 -64.23 146.59 -53.69 139.44 C-47.18 133.43 -44.36 126.38 -43.19 117.75 C-43.83 105.89 -50.88 94.98 -56.67 84.99 C-57.19 84.08 -57.71 83.18 -58.24 82.25 C-58.71 81.44 -59.18 80.63 -59.67 79.8 C-60.84 77.09 -61.11 75.36 -60.69 72.44 C-58.33 70.51 -56.16 69.04 -53.56 67.5 C-52.01 66.54 -50.45 65.58 -48.89 64.61 C-48.05 64.1 -47.21 63.59 -46.35 63.07 C-41.63 60.18 -36.98 57.17 -32.31 54.19 C-30.53 53.06 -28.76 51.93 -26.98 50.8 C-26.11 50.25 -25.25 49.7 -24.36 49.13 C-22.5 47.95 -20.63 46.77 -18.75 45.6 C-17.79 44.99 -16.83 44.39 -15.84 43.77 C-14.97 43.22 -14.1 42.68 -13.21 42.12 C-4.52 36.32 -4.52 36.32 -2.88 30.62 C-2.64 26.69 -3.65 24.76 -5.69 21.44 C-7.69 19.44 -7.69 19.44 -9.94 19.11 C-13.49 19.53 -15.62 20.84 -18.69 22.69 Z M-472.69 95.44 C-492.33 119.93 -486.6 147.27 -483.41 176.29 C-483.31 177.18 -483.22 178.08 -483.11 179 C-482.6 183.71 -482.1 188.42 -481.59 193.12 C-480.63 202.09 -479.66 211.06 -478.68 220.03 C-477.6 229.95 -476.53 239.87 -475.46 249.79 C-473.59 267.17 -471.7 284.55 -469.81 301.92 C-468.5 313.89 -467.21 325.86 -465.94 337.83 C-465.31 343.84 -464.67 349.84 -464.02 355.84 C-463.52 360.58 -463.02 365.32 -462.52 370.06 C-462.22 372.95 -461.91 375.83 -461.6 378.72 C-461.39 380.66 -461.19 382.59 -460.99 384.53 C-459.46 398.46 -456.21 408.76 -445.01 417.79 C-435.29 424.68 -424.17 424.01 -412.8 423.96 C-410.91 423.96 -409.01 423.97 -407.12 423.98 C-402 423.99 -396.88 423.99 -391.76 423.97 C-386.39 423.96 -381.01 423.97 -375.64 423.98 C-366.62 423.99 -357.6 423.98 -348.58 423.96 C-338.17 423.94 -327.76 423.94 -317.34 423.97 C-308.39 423.98 -299.43 423.99 -290.47 423.98 C-285.13 423.97 -279.78 423.97 -274.44 423.98 C-269.42 423.99 -264.4 423.99 -259.37 423.96 C-257.54 423.96 -255.7 423.96 -253.86 423.97 C-242.13 424.02 -231.47 424.02 -222.25 415.75 C-213.63 406.24 -213.57 395.31 -213.13 383.11 C-213.08 381.89 -213.04 380.66 -212.99 379.4 C-212.89 376.74 -212.78 374.08 -212.69 371.42 C-212.53 367.2 -212.37 362.98 -212.21 358.77 C-211.92 351.32 -211.64 343.88 -211.36 336.44 C-210.94 325.26 -210.51 314.08 -210.09 302.91 C-209.93 298.73 -209.77 294.55 -209.61 290.37 C-209.49 287.14 -209.37 283.9 -209.24 280.67 C-209.2 279.53 -209.16 278.39 -209.12 277.22 C-208.81 269.28 -208.3 261.36 -207.69 253.44 C-211.1 255.06 -213.48 256.92 -216.25 259.5 C-219.81 262.77 -223.43 265.9 -227.19 268.94 C-230.8 271.85 -234.28 274.85 -237.69 278 C-252.56 291.48 -266.14 298.28 -286.19 297.74 C-303.17 296.87 -316.23 285.9 -329.02 275.76 C-330.76 274.38 -332.51 273.01 -334.26 271.64 C-349.27 259.9 -364.06 247.87 -378.8 235.8 C-383 232.37 -387.2 228.95 -391.41 225.54 C-394.98 222.64 -398.54 219.74 -402.09 216.82 C-402.81 216.23 -403.53 215.65 -404.27 215.04 C-405.64 213.92 -407.01 212.79 -408.37 211.66 C-413.47 207.49 -418.31 204.48 -424.5 202.12 C-437.27 196.86 -445.42 187.84 -451.46 175.53 C-456.17 163.66 -456.6 150.03 -451.95 138.08 C-449.93 133.85 -447.55 130.14 -444.69 126.44 C-444.17 125.75 -443.66 125.06 -443.13 124.35 C-434.72 113.84 -422.82 108.56 -409.59 107.09 C-395.81 106.66 -382.97 110.68 -372.5 119.62 C-362.87 128.8 -357.11 139.08 -356.25 152.56 C-356.06 153.84 -355.88 155.12 -355.69 156.44 C-353.46 158.02 -353.46 158.02 -350.69 159.44 C-349.9 159.87 -349.12 160.29 -348.31 160.73 C-347.49 161.17 -346.67 161.6 -345.83 162.05 C-334.93 167.85 -324.19 173.84 -313.62 180.25 C-298.09 189.63 -298.09 189.63 -293 192.5 C-291.9 193.13 -290.81 193.76 -289.68 194.41 C-285.81 195.74 -284.42 194.97 -280.69 193.44 C-278.81 192.27 -276.97 191.02 -275.18 189.71 C-269.31 185.53 -263.34 181.52 -257.32 177.57 C-256.86 177.26 -256.86 177.26 -254.5 175.71 C-251.61 173.81 -248.71 171.9 -245.81 170 C-243.88 168.73 -241.95 167.46 -240.01 166.19 C-239.07 165.56 -238.12 164.94 -237.15 164.3 C-235.27 163.07 -233.41 161.83 -231.54 160.58 C-227.44 157.84 -223.35 155.2 -219.01 152.86 C-209.4 147.54 -209.4 147.54 -207.47 141.86 C-207.06 137.64 -207.17 133.77 -207.5 129.56 C-207.54 128.17 -207.58 126.77 -207.6 125.38 C-208.04 111.84 -211.6 100.67 -220.69 90.44 C-228.96 82.72 -237.73 80.28 -248.88 80.3 C-249.7 80.29 -250.52 80.29 -251.36 80.29 C-254.11 80.28 -256.86 80.28 -259.61 80.28 C-261.58 80.27 -263.55 80.27 -265.52 80.26 C-270.88 80.25 -276.23 80.24 -281.59 80.24 C-284.94 80.23 -288.29 80.23 -291.64 80.23 C-302.12 80.21 -312.61 80.2 -323.09 80.2 C-335.18 80.19 -347.27 80.18 -359.36 80.15 C-368.71 80.13 -378.06 80.12 -387.42 80.11 C-393 80.11 -398.58 80.11 -404.16 80.09 C-409.42 80.07 -414.67 80.07 -419.93 80.08 C-421.85 80.08 -423.77 80.08 -425.69 80.07 C-443.12 79.98 -460.12 81.84 -472.69 95.44 Z M-427.5 137.81 C-432.65 143.21 -434.36 149.28 -434.94 156.62 C-434.33 165.81 -431.47 172.18 -424.69 178.44 C-416.94 184.44 -409.25 185.36 -399.69 184.44 C-391 182.14 -384.84 176.81 -380.31 169.19 C-376.86 162.36 -375.64 156.25 -377.75 148.81 C-381.04 140.35 -387.04 133.85 -395.06 129.69 C-407.84 125.28 -417.86 128.82 -427.5 137.81 Z M-157.4 136 C-161.82 139.25 -166.4 142.16 -171.06 145.04 C-180.05 150.61 -188.84 156.48 -197.62 162.38 C-200.65 164.41 -203.68 166.44 -206.71 168.46 C-207.09 168.71 -207.09 168.71 -208.96 169.97 C-214.91 173.94 -220.9 177.84 -226.92 181.71 C-231.31 184.54 -235.67 187.4 -240 190.31 C-248.43 195.96 -256.94 201.49 -265.46 207 C-266.84 207.89 -268.22 208.78 -269.6 209.68 C-271.15 210.69 -272.7 211.69 -274.25 212.69 C-274.65 212.95 -274.65 212.95 -276.69 214.27 C-281.16 216.89 -285.66 217.28 -290.69 216.44 C-298.77 213.27 -306.21 208.64 -313.6 204.12 C-318.98 200.83 -324.45 197.72 -329.94 194.62 C-338.07 190.03 -346 185.19 -353.82 180.09 C-354.57 179.61 -355.31 179.13 -356.07 178.64 C-356.73 178.21 -357.38 177.79 -358.05 177.35 C-359.69 176.44 -359.69 176.44 -361.69 176.44 C-362.81 178.08 -363.86 179.78 -364.88 181.5 C-370.43 190.4 -376.05 194.99 -385.31 199.96 C-385.7 200.2 -385.7 200.2 -387.69 201.44 C-387.69 202.1 -387.69 202.76 -387.69 203.44 C-385.77 205 -385.77 205 -383.06 206.88 C-376.7 211.39 -370.6 216.17 -364.49 221.02 C-362.72 222.41 -360.95 223.79 -359.18 225.16 C-352.58 230.28 -346.18 235.55 -339.87 241.02 C-335.49 244.8 -330.99 248.36 -326.38 251.86 C-322.87 254.51 -319.45 257.25 -316.06 260.06 C-302.86 270.92 -292.38 278.75 -274.69 277.44 C-263.5 274.98 -255.42 266.18 -247.24 258.71 C-244.68 256.43 -242.05 254.27 -239.38 252.12 C-233.92 247.71 -228.8 242.99 -223.67 238.21 C-219.59 234.4 -215.39 230.75 -211.15 227.12 C-203.02 220.18 -195.07 213.09 -187.32 205.73 C-183.45 202.06 -179.52 198.5 -175.5 195.01 C-169.48 189.79 -163.62 184.39 -157.75 179 C-157.25 178.54 -156.74 178.08 -156.22 177.6 C-153.76 175.34 -151.29 173.07 -148.83 170.8 C-143.56 165.95 -138.2 161.36 -132.49 157.03 C-131.89 156.51 -131.3 155.98 -130.69 155.44 C-130.69 154.78 -130.69 154.12 -130.69 153.44 C-131.53 152.78 -132.38 152.12 -133.25 151.44 C-139.97 146.05 -144.13 138.13 -147.69 130.44 C-151.38 130.44 -154.51 133.83 -157.4 136 Z " fill="#000000" transform="translate(537.6875,590.5625)"/>
</svg>
